G04*
G04 #@! TF.GenerationSoftware,Altium Limited,Altium Designer,24.1.2 (44)*
G04*
G04 Layer_Color=16711935*
%FSLAX44Y44*%
%MOMM*%
G71*
G04*
G04 #@! TF.SameCoordinates,45874381-32F6-40E1-B25F-84CDE6F57C9E*
G04*
G04*
G04 #@! TF.FilePolarity,Negative*
G04*
G01*
G75*
%ADD18C,2.7032*%
%ADD19R,3.2032X3.2032*%
%ADD20R,3.2032X3.2032*%
%ADD21C,2.2000*%
%ADD22R,2.2000X2.2000*%
%ADD23C,1.6032*%
%ADD24C,1.7032*%
%ADD25C,1.3970*%
%ADD26R,1.3970X1.3970*%
%ADD27C,2.6032*%
%ADD28R,2.6032X2.6032*%
%ADD29C,2.0500*%
%ADD30R,2.0500X2.0500*%
D18*
X21500Y54750D02*
D03*
X24500Y760500D02*
D03*
X962250Y754000D02*
D03*
D19*
X577250Y186250D02*
D03*
Y226250D02*
D03*
X27250D02*
D03*
Y186250D02*
D03*
X908000Y768750D02*
D03*
X695750Y556500D02*
D03*
Y766500D02*
D03*
X185750Y556500D02*
D03*
Y766500D02*
D03*
X923000Y141250D02*
D03*
X959000Y142250D02*
D03*
X910250Y728250D02*
D03*
X27500Y563000D02*
D03*
X25500Y612750D02*
D03*
X31750Y440000D02*
D03*
X29750Y483500D02*
D03*
D20*
X743750Y177250D02*
D03*
X953750D02*
D03*
X743750Y687250D02*
D03*
X953750D02*
D03*
D21*
X648450Y429500D02*
D03*
X432550Y499500D02*
D03*
X388950Y498250D02*
D03*
X393200Y432000D02*
D03*
D22*
X439050Y429500D02*
D03*
X641950Y499500D02*
D03*
X179550Y498250D02*
D03*
X183800Y432000D02*
D03*
D23*
X803250Y733750D02*
D03*
Y768750D02*
D03*
X103750Y581000D02*
D03*
Y616000D02*
D03*
X108000Y477250D02*
D03*
Y442250D02*
D03*
D24*
X716200Y45750D02*
D03*
X690800D02*
D03*
X649700D02*
D03*
X624300D02*
D03*
D25*
X57250Y771550D02*
D03*
X638000Y274950D02*
D03*
X688500Y312200D02*
D03*
D26*
X57250Y657250D02*
D03*
X638000Y389250D02*
D03*
X688500Y426500D02*
D03*
D27*
X948550Y67000D02*
D03*
X828750Y65000D02*
D03*
D28*
X897750Y67000D02*
D03*
X777950Y65000D02*
D03*
D29*
X661250Y150700D02*
D03*
Y176100D02*
D03*
D30*
Y201500D02*
D03*
M02*
