G04*
G04 #@! TF.GenerationSoftware,Altium Limited,Altium Designer,24.1.2 (44)*
G04*
G04 Layer_Color=32768*
%FSLAX44Y44*%
%MOMM*%
G71*
G04*
G04 #@! TF.SameCoordinates,45874381-32F6-40E1-B25F-84CDE6F57C9E*
G04*
G04*
G04 #@! TF.FilePolarity,Positive*
G04*
G01*
G75*
%ADD14C,0.1524*%
%ADD16C,0.1000*%
%ADD40C,0.0500*%
G36*
X66775Y680364D02*
Y647725D01*
X47725D01*
Y680364D01*
X41629D01*
Y748436D01*
X47725D01*
Y781075D01*
X66775D01*
Y748436D01*
X72871D01*
Y680364D01*
X66775D01*
D02*
G37*
G36*
X628475Y366136D02*
Y398775D01*
X647525D01*
Y366136D01*
X653621D01*
Y298064D01*
X647525D01*
Y265425D01*
X628475D01*
Y298064D01*
X622379D01*
Y366136D01*
X628475D01*
D02*
G37*
G36*
X678975Y403386D02*
Y436025D01*
X698025D01*
Y403386D01*
X704121D01*
Y335314D01*
X698025D01*
Y302675D01*
X678975D01*
Y335314D01*
X672879D01*
Y403386D01*
X678975D01*
D02*
G37*
D14*
X72871Y680364D02*
Y748436D01*
X66775D02*
X72871D01*
X41629D02*
X47725D01*
X41629Y680364D02*
Y748436D01*
Y680364D02*
X47725D01*
X66775D02*
X72871D01*
X66775Y647725D02*
Y680364D01*
Y748436D02*
Y781075D01*
X47725D02*
X66775D01*
X47725Y748436D02*
Y781075D01*
Y647725D02*
Y680364D01*
Y647725D02*
X66775D01*
X622379Y298064D02*
Y366136D01*
Y298064D02*
X628475D01*
X647525D02*
X653621D01*
Y366136D01*
X647525D02*
X653621D01*
X622379D02*
X628475D01*
Y398775D01*
Y265425D02*
Y298064D01*
Y265425D02*
X647525D01*
Y298064D01*
Y366136D02*
Y398775D01*
X628475D02*
X647525D01*
X672879Y335314D02*
Y403386D01*
Y335314D02*
X678975D01*
X698025D02*
X704121D01*
Y403386D01*
X698025D02*
X704121D01*
X672879D02*
X678975D01*
Y436025D01*
Y302675D02*
Y335314D01*
Y302675D02*
X698025D01*
Y335314D01*
Y403386D02*
Y436025D01*
X678975D02*
X698025D01*
D16*
X803250Y746250D02*
Y756250D01*
X798250Y751250D02*
X808250D01*
X103750Y593500D02*
Y603500D01*
X98750Y598500D02*
X108750D01*
X108000Y454750D02*
Y464750D01*
X103000Y459750D02*
X113000D01*
D40*
X762250Y710250D02*
Y792250D01*
Y710250D02*
X844250D01*
X762250Y792250D02*
X844250D01*
Y710250D02*
Y792250D01*
X62750Y557500D02*
Y639500D01*
Y557500D02*
X144750D01*
X62750Y639500D02*
X144750D01*
Y557500D02*
Y639500D01*
X149000Y418750D02*
Y500750D01*
X67000D02*
X149000D01*
X67000Y418750D02*
X149000D01*
X67000D02*
Y500750D01*
X976450Y7900D02*
Y125900D01*
X869850Y7900D02*
Y125900D01*
Y7900D02*
X976450D01*
X869850Y125900D02*
X976450D01*
X856650Y5900D02*
Y123900D01*
X750050Y5900D02*
Y123900D01*
Y5900D02*
X856650D01*
X750050Y123900D02*
X856650D01*
M02*
