G04*
G04 #@! TF.GenerationSoftware,Altium Limited,Altium Designer,24.1.2 (44)*
G04*
G04 Layer_Color=32896*
%FSLAX44Y44*%
%MOMM*%
G71*
G04*
G04 #@! TF.SameCoordinates,45874381-32F6-40E1-B25F-84CDE6F57C9E*
G04*
G04*
G04 #@! TF.FilePolarity,Positive*
G04*
G01*
G75*
G36*
X100845Y103750D02*
Y110275D01*
X89971D01*
Y111906D01*
X100845D01*
Y126044D01*
X88883D01*
Y117887D01*
X87252D01*
Y118431D01*
X86708D01*
Y127131D01*
X87252D01*
Y127675D01*
X113895D01*
Y126044D01*
X110633D01*
Y96138D01*
X111177D01*
Y95594D01*
X113895D01*
Y93963D01*
X87252D01*
Y94506D01*
X86708D01*
Y103206D01*
X87252D01*
Y103750D01*
X88883D01*
Y95594D01*
X100302D01*
Y96138D01*
X100845D01*
Y103206D01*
Y103750D01*
D02*
G37*
G36*
X143257Y97225D02*
Y93963D01*
X141082D01*
Y96681D01*
X140539D01*
Y96138D01*
X139995D01*
Y95594D01*
X139451D01*
Y95050D01*
X138907D01*
Y94506D01*
X138364D01*
Y93963D01*
X120420D01*
Y94506D01*
X119876D01*
Y95050D01*
X119333D01*
Y95594D01*
X118789D01*
Y96138D01*
X118245D01*
Y96681D01*
X117701D01*
Y97225D01*
X117158D01*
Y97769D01*
X116614D01*
Y103750D01*
X117158D01*
Y104838D01*
X117701D01*
Y105381D01*
X118245D01*
Y105925D01*
X118789D01*
Y106469D01*
X119333D01*
Y107013D01*
X119876D01*
Y108100D01*
X120420D01*
Y108644D01*
X120964D01*
Y109187D01*
X121508D01*
Y109731D01*
X122051D01*
Y110275D01*
X122595D01*
Y111362D01*
X123139D01*
Y111906D01*
X123683D01*
Y112450D01*
X124226D01*
Y112994D01*
X124770D01*
Y113537D01*
X125314D01*
Y114081D01*
X125858D01*
Y114625D01*
X126401D01*
Y115712D01*
X126945D01*
Y116256D01*
X127489D01*
Y116800D01*
X128033D01*
Y117344D01*
X128576D01*
Y117887D01*
X129120D01*
Y118975D01*
X129664D01*
Y119519D01*
X130208D01*
Y120062D01*
X130751D01*
Y120606D01*
X131295D01*
Y121150D01*
X131839D01*
Y121694D01*
X132382D01*
Y122781D01*
X132926D01*
Y123325D01*
X133470D01*
Y123869D01*
X134014D01*
Y124412D01*
X134558D01*
Y124956D01*
X135101D01*
Y126044D01*
X123139D01*
Y125500D01*
X122595D01*
Y124956D01*
X122051D01*
Y124412D01*
X121508D01*
Y123869D01*
X120964D01*
Y123325D01*
X120420D01*
Y122781D01*
X119876D01*
Y122237D01*
X119333D01*
Y117344D01*
X117701D01*
Y128218D01*
X119333D01*
Y124956D01*
X119876D01*
Y125500D01*
X120420D01*
Y126044D01*
X120964D01*
Y126587D01*
X121508D01*
Y127131D01*
X122051D01*
Y127675D01*
X138907D01*
Y127131D01*
X139451D01*
Y126587D01*
X139995D01*
Y126044D01*
X140539D01*
Y125500D01*
X141082D01*
Y124956D01*
X141626D01*
Y124412D01*
X142170D01*
Y123869D01*
X142714D01*
Y117887D01*
X142170D01*
Y116800D01*
X141626D01*
Y116256D01*
X141082D01*
Y115712D01*
X140539D01*
Y115169D01*
X139995D01*
Y114625D01*
X139451D01*
Y114081D01*
X138907D01*
Y112994D01*
X138364D01*
Y112450D01*
X137820D01*
Y111906D01*
X137276D01*
Y111362D01*
X136733D01*
Y110819D01*
X136189D01*
Y109731D01*
X135645D01*
Y109187D01*
X135101D01*
Y108644D01*
X134558D01*
Y108100D01*
X134014D01*
Y107556D01*
X133470D01*
Y106469D01*
X132926D01*
Y105925D01*
X132382D01*
Y105381D01*
X131839D01*
Y104838D01*
X131295D01*
Y104294D01*
X130751D01*
Y103750D01*
X130208D01*
Y102662D01*
X129664D01*
Y102119D01*
X129120D01*
Y101575D01*
X128576D01*
Y101031D01*
X128033D01*
Y100487D01*
X127489D01*
Y99944D01*
X126945D01*
Y98856D01*
X126401D01*
Y98313D01*
X125858D01*
Y97769D01*
X125314D01*
Y97225D01*
X124770D01*
Y96681D01*
X124226D01*
Y96138D01*
X124770D01*
Y95594D01*
X137276D01*
Y96138D01*
X137820D01*
Y96681D01*
X138364D01*
Y97225D01*
X138907D01*
Y97769D01*
X139451D01*
Y98313D01*
X139995D01*
Y98856D01*
X140539D01*
Y99400D01*
X141082D01*
Y104294D01*
X143257D01*
Y97769D01*
Y97225D01*
D02*
G37*
G36*
X176970Y126044D02*
X173707D01*
Y120062D01*
Y119519D01*
Y96138D01*
X174251D01*
Y95594D01*
X176970D01*
Y93963D01*
X161201D01*
Y94506D01*
X160657D01*
Y95594D01*
X163376D01*
Y96138D01*
X164464D01*
Y98313D01*
X163920D01*
Y107013D01*
X164464D01*
Y108100D01*
X163920D01*
Y108644D01*
X150870D01*
Y109187D01*
X150326D01*
Y109731D01*
X149782D01*
Y110275D01*
X149239D01*
Y110819D01*
X148695D01*
Y111362D01*
X148151D01*
Y111906D01*
X147607D01*
Y112994D01*
X147064D01*
Y120062D01*
X147607D01*
Y120606D01*
X147064D01*
Y123325D01*
X147607D01*
Y124412D01*
X148151D01*
Y124956D01*
X148695D01*
Y125500D01*
X149239D01*
Y126044D01*
X149782D01*
Y126587D01*
X150326D01*
Y127131D01*
X150870D01*
Y127675D01*
X176970D01*
Y126044D01*
D02*
G37*
G36*
X195457D02*
X193282D01*
Y95594D01*
X196544D01*
Y94506D01*
X196001D01*
Y93963D01*
X180232D01*
Y95594D01*
X182951D01*
Y96138D01*
X183494D01*
Y126044D01*
X180232D01*
Y127675D01*
X196544D01*
Y126044D01*
X196001D01*
X195457D01*
D02*
G37*
G36*
X209051Y95594D02*
X212857D01*
Y96138D01*
X213400D01*
Y125500D01*
X212857D01*
Y126044D01*
X209594D01*
Y127675D01*
X225907D01*
Y126044D01*
X222644D01*
Y96138D01*
X223188D01*
Y95594D01*
X225363D01*
Y96138D01*
X225907D01*
Y93963D01*
X198719D01*
Y103750D01*
X200351D01*
Y96138D01*
X200894D01*
Y95594D01*
X208507D01*
X209051D01*
D02*
G37*
G36*
X241131Y127675D02*
X250919D01*
Y127131D01*
X251463D01*
Y126587D01*
X252006D01*
Y126044D01*
X252550D01*
Y125500D01*
X253094D01*
Y124956D01*
X253638D01*
Y124412D01*
X254181D01*
Y123869D01*
X254725D01*
Y97769D01*
X254181D01*
Y97225D01*
X253638D01*
Y96681D01*
X253094D01*
Y96138D01*
X252550D01*
Y95594D01*
X252006D01*
Y95050D01*
X251463D01*
Y94506D01*
X250919D01*
Y93963D01*
X232975D01*
Y94506D01*
X232432D01*
Y95050D01*
X231888D01*
Y95594D01*
X231344D01*
Y96138D01*
X230800D01*
Y96681D01*
X230257D01*
Y97225D01*
X229713D01*
Y97769D01*
X229169D01*
Y98856D01*
X229713D01*
Y99400D01*
X230800D01*
Y98856D01*
X231344D01*
Y98313D01*
X231888D01*
Y97769D01*
X232432D01*
Y97225D01*
X232975D01*
Y96681D01*
X233519D01*
Y96138D01*
X234606D01*
Y95594D01*
X244938D01*
Y96138D01*
X245481D01*
Y126044D01*
X234606D01*
Y124956D01*
X233519D01*
Y124412D01*
X232975D01*
Y123869D01*
X232432D01*
Y123325D01*
X231888D01*
Y122781D01*
X231344D01*
Y116800D01*
X229169D01*
Y127675D01*
X229713D01*
Y128218D01*
X231344D01*
Y124956D01*
X231888D01*
Y125500D01*
X232432D01*
Y126044D01*
X232975D01*
Y126587D01*
X233519D01*
Y127131D01*
X234063D01*
Y127675D01*
X240588D01*
X241131D01*
D02*
G37*
G36*
X263969Y93963D02*
X259619D01*
Y103750D01*
X261250D01*
Y96138D01*
X261794D01*
Y95594D01*
X273212D01*
Y96138D01*
X273756D01*
Y110275D01*
X262881D01*
Y111906D01*
X273212D01*
Y112450D01*
X273756D01*
Y125500D01*
X273212D01*
Y126044D01*
X261250D01*
Y117887D01*
X259619D01*
Y127675D01*
X286262D01*
Y126044D01*
X283000D01*
Y96138D01*
X283543D01*
Y95594D01*
X286262D01*
Y93963D01*
X264513D01*
X263969D01*
D02*
G37*
G36*
X367280Y159212D02*
X367824D01*
Y128762D01*
X367280D01*
Y128218D01*
X367824D01*
Y127675D01*
X368368D01*
Y127131D01*
X368911D01*
Y126587D01*
X369455D01*
Y126044D01*
X369999D01*
Y125500D01*
X370543D01*
Y124956D01*
X371086D01*
Y124412D01*
X371630D01*
Y123869D01*
X372174D01*
Y123325D01*
X372718D01*
Y122781D01*
X373261D01*
Y122237D01*
X373805D01*
Y121694D01*
X374349D01*
Y121150D01*
X374893D01*
Y120606D01*
X375980D01*
Y120062D01*
X376524D01*
Y119519D01*
X377068D01*
Y118975D01*
X377611D01*
Y118431D01*
X378155D01*
Y117887D01*
X378699D01*
Y117344D01*
X379243D01*
Y116800D01*
X379786D01*
Y116256D01*
X380330D01*
Y115712D01*
X380874D01*
Y115169D01*
X381418D01*
Y114625D01*
X381961D01*
Y114081D01*
X382505D01*
Y113537D01*
X383049D01*
Y112994D01*
X383592D01*
Y112450D01*
X385768D01*
Y112994D01*
X386311D01*
Y112450D01*
X388486D01*
Y111906D01*
X389030D01*
Y111362D01*
X390117D01*
Y110275D01*
X390661D01*
Y109187D01*
X391205D01*
Y106469D01*
X390661D01*
Y105381D01*
X390117D01*
Y104294D01*
X389030D01*
Y103750D01*
X388486D01*
Y103206D01*
X384136D01*
Y103750D01*
X383049D01*
Y104294D01*
X382505D01*
Y104838D01*
X381961D01*
Y105925D01*
X381418D01*
Y109731D01*
X381961D01*
Y110819D01*
X381418D01*
Y111362D01*
X380330D01*
Y111906D01*
X379786D01*
Y112450D01*
X379243D01*
Y112994D01*
X378699D01*
Y113537D01*
X378155D01*
Y114081D01*
X377611D01*
Y114625D01*
X377068D01*
Y115169D01*
X376524D01*
Y115712D01*
X375980D01*
Y116256D01*
X375436D01*
Y116800D01*
X374893D01*
Y117344D01*
X374349D01*
Y117887D01*
X373805D01*
Y118431D01*
X373261D01*
Y118975D01*
X372174D01*
Y119519D01*
X371630D01*
Y120062D01*
X371086D01*
Y120606D01*
X370543D01*
Y121150D01*
X369999D01*
Y121694D01*
X369455D01*
Y122237D01*
X368911D01*
Y122781D01*
X368368D01*
Y123325D01*
X367824D01*
Y123869D01*
X367280D01*
Y124412D01*
X366736D01*
Y124956D01*
X366193D01*
Y125500D01*
X365649D01*
Y126044D01*
X365105D01*
Y126587D01*
X364562D01*
Y159756D01*
X367280D01*
Y159212D01*
D02*
G37*
G36*
X309100Y140181D02*
X309643D01*
Y139637D01*
X310187D01*
Y139093D01*
X310731D01*
Y138550D01*
X311275D01*
Y138006D01*
X311818D01*
Y137462D01*
X312362D01*
Y136918D01*
X312906D01*
Y136375D01*
X313449D01*
Y135831D01*
X313993D01*
Y135287D01*
X314537D01*
Y134743D01*
X315081D01*
Y134200D01*
X315625D01*
Y133656D01*
X316168D01*
Y133112D01*
X316712D01*
Y132025D01*
X317256D01*
Y131481D01*
X317799D01*
Y130937D01*
X318343D01*
Y130393D01*
X318887D01*
Y129850D01*
X319431D01*
Y129306D01*
X319974D01*
Y128762D01*
X320518D01*
Y128218D01*
X321062D01*
Y127675D01*
X321606D01*
Y127131D01*
X322149D01*
Y126587D01*
X322693D01*
Y126044D01*
X323237D01*
Y125500D01*
X323781D01*
Y124956D01*
X324324D01*
Y123869D01*
X325412D01*
Y122781D01*
X325956D01*
Y122237D01*
X326499D01*
Y121694D01*
X327043D01*
Y121150D01*
X327587D01*
Y120606D01*
X328131D01*
Y120062D01*
X328674D01*
Y119519D01*
X329218D01*
Y118975D01*
X329762D01*
Y118431D01*
X330306D01*
Y117887D01*
X330849D01*
Y117344D01*
X331393D01*
Y116800D01*
X331937D01*
Y116256D01*
X332481D01*
Y115169D01*
X333024D01*
Y114625D01*
X333568D01*
Y114081D01*
X334112D01*
Y113537D01*
X334655D01*
Y112994D01*
X335199D01*
Y112450D01*
X335743D01*
Y111906D01*
X336287D01*
Y111362D01*
X336830D01*
Y110819D01*
X337374D01*
Y110275D01*
X337918D01*
Y109731D01*
X338462D01*
Y109187D01*
X339006D01*
Y108644D01*
X339549D01*
Y107556D01*
X340093D01*
Y107013D01*
X341180D01*
Y106469D01*
X342812D01*
Y107013D01*
X343355D01*
Y106469D01*
X343899D01*
Y107013D01*
X344443D01*
Y106469D01*
X346618D01*
Y107013D01*
X347162D01*
Y106469D01*
X348249D01*
Y107013D01*
X348793D01*
Y108100D01*
X349337D01*
Y108644D01*
X349880D01*
Y109187D01*
X350424D01*
Y109731D01*
X352055D01*
Y110275D01*
X354230D01*
Y109731D01*
X355318D01*
Y109187D01*
X356405D01*
Y108644D01*
X356949D01*
Y107556D01*
X357493D01*
Y106469D01*
X358036D01*
Y103750D01*
X357493D01*
Y102662D01*
X356949D01*
Y102119D01*
X356405D01*
Y101575D01*
X355862D01*
Y101031D01*
X355318D01*
Y100487D01*
X350968D01*
Y101031D01*
X349880D01*
Y101575D01*
X349337D01*
Y102119D01*
X348793D01*
Y103206D01*
X348249D01*
Y103750D01*
X339006D01*
Y104294D01*
X338462D01*
Y105381D01*
X337918D01*
Y105925D01*
X337374D01*
Y106469D01*
X336830D01*
Y107013D01*
X336287D01*
Y107556D01*
X335743D01*
Y108100D01*
X335199D01*
Y108644D01*
X334655D01*
Y109187D01*
X334112D01*
Y109731D01*
X333568D01*
Y110275D01*
X333024D01*
Y110819D01*
X332481D01*
Y111362D01*
X331937D01*
Y111906D01*
X331393D01*
Y112450D01*
X330849D01*
Y113537D01*
X330306D01*
Y114081D01*
X329762D01*
Y114625D01*
X329218D01*
Y115169D01*
X328674D01*
Y115712D01*
X328131D01*
Y116256D01*
X327587D01*
Y116800D01*
X327043D01*
Y117344D01*
X326499D01*
Y117887D01*
X325956D01*
Y118431D01*
X325412D01*
Y118975D01*
X324868D01*
Y119519D01*
X324324D01*
Y120062D01*
X323781D01*
Y120606D01*
X323237D01*
Y121150D01*
X322693D01*
Y122237D01*
X322149D01*
Y122781D01*
X321606D01*
Y123325D01*
X321062D01*
Y123869D01*
X320518D01*
Y124412D01*
X319974D01*
Y124956D01*
X319431D01*
Y125500D01*
X318887D01*
Y126044D01*
X318343D01*
Y126587D01*
X317799D01*
Y127131D01*
X317256D01*
Y127675D01*
X316712D01*
Y128218D01*
X316168D01*
Y128762D01*
X315625D01*
Y129306D01*
X315081D01*
Y129850D01*
X314537D01*
Y130393D01*
X313993D01*
Y131481D01*
X313449D01*
Y132025D01*
X312906D01*
Y132569D01*
X312362D01*
Y133112D01*
X311818D01*
Y133656D01*
X311275D01*
Y134200D01*
X310731D01*
Y134743D01*
X310187D01*
Y135287D01*
X309643D01*
Y135831D01*
X309100D01*
Y136375D01*
X308556D01*
Y136918D01*
X308012D01*
Y137462D01*
X307468D01*
Y138006D01*
X306924D01*
Y138550D01*
X306381D01*
Y139093D01*
X306924D01*
Y139637D01*
X307468D01*
Y140181D01*
X308012D01*
Y140725D01*
X308556D01*
Y141268D01*
X309100D01*
Y140181D01*
D02*
G37*
G36*
X325412Y138550D02*
X327043D01*
Y138006D01*
X327587D01*
Y137462D01*
X328131D01*
Y136918D01*
X328674D01*
Y135831D01*
X340093D01*
Y135287D01*
X340637D01*
Y134743D01*
X341180D01*
Y134200D01*
X341724D01*
Y133656D01*
X342268D01*
Y133112D01*
X342812D01*
Y132569D01*
X343355D01*
Y131481D01*
X343899D01*
Y130937D01*
X344443D01*
Y130393D01*
X344987D01*
Y129850D01*
X345530D01*
Y129306D01*
X346074D01*
Y128762D01*
X346618D01*
Y127675D01*
X347162D01*
Y127131D01*
X347705D01*
Y126587D01*
X348249D01*
Y126044D01*
X348793D01*
Y125500D01*
X349337D01*
Y124956D01*
X349880D01*
Y123869D01*
X350424D01*
Y123325D01*
X350968D01*
Y122781D01*
X351512D01*
Y122237D01*
X352055D01*
Y121694D01*
X352599D01*
Y121150D01*
X360755D01*
Y120606D01*
X361299D01*
Y120062D01*
X361843D01*
Y119519D01*
X362387D01*
Y118975D01*
X362930D01*
Y117887D01*
X363474D01*
Y117344D01*
X364018D01*
Y116800D01*
X364562D01*
Y116256D01*
X365105D01*
Y115712D01*
X365649D01*
Y114625D01*
X366193D01*
Y114081D01*
X366736D01*
Y113537D01*
X367280D01*
Y112994D01*
X367824D01*
Y112450D01*
X368368D01*
Y85807D01*
X369455D01*
Y85263D01*
X369999D01*
Y84719D01*
X370543D01*
Y84175D01*
X371086D01*
Y83631D01*
X371630D01*
Y82000D01*
X372174D01*
Y80369D01*
X371630D01*
Y78738D01*
X371086D01*
Y78194D01*
X370543D01*
Y77650D01*
X369999D01*
Y77106D01*
X369455D01*
Y76563D01*
X367280D01*
Y76019D01*
X366736D01*
Y76563D01*
X364562D01*
Y77106D01*
X364018D01*
Y77650D01*
X363474D01*
Y78194D01*
X362930D01*
Y79282D01*
X362387D01*
Y83088D01*
X362930D01*
Y84175D01*
X363474D01*
Y84719D01*
X364018D01*
Y85263D01*
X365105D01*
Y85807D01*
X365649D01*
Y110819D01*
X365105D01*
Y111362D01*
X364562D01*
Y111906D01*
X364018D01*
Y112450D01*
X363474D01*
Y112994D01*
X362930D01*
Y114081D01*
X362387D01*
Y114625D01*
X361843D01*
Y115169D01*
X361299D01*
Y115712D01*
X360755D01*
Y116256D01*
X360211D01*
Y117344D01*
X359668D01*
Y117887D01*
X351512D01*
Y118431D01*
X350968D01*
Y118975D01*
X350424D01*
Y119519D01*
X349880D01*
Y120062D01*
X349337D01*
Y120606D01*
X348793D01*
Y121150D01*
X348249D01*
Y122237D01*
X347705D01*
Y122781D01*
X347162D01*
Y123325D01*
X346618D01*
Y123869D01*
X346074D01*
Y124412D01*
X345530D01*
Y124956D01*
X344987D01*
Y126044D01*
X344443D01*
Y126587D01*
X343899D01*
Y127131D01*
X343355D01*
Y127675D01*
X342812D01*
Y128218D01*
X342268D01*
Y128762D01*
X341724D01*
Y129306D01*
X341180D01*
Y130393D01*
X340637D01*
Y130937D01*
X340093D01*
Y131481D01*
X339549D01*
Y132025D01*
X339006D01*
Y132569D01*
X329218D01*
Y132025D01*
X328674D01*
Y131481D01*
X328131D01*
Y130393D01*
X327587D01*
Y129850D01*
X326499D01*
Y129306D01*
X322693D01*
Y129850D01*
X321606D01*
Y130393D01*
X321062D01*
Y130937D01*
X320518D01*
Y131481D01*
X319974D01*
Y133112D01*
X319431D01*
Y135287D01*
X319974D01*
Y136375D01*
X320518D01*
Y137462D01*
X321062D01*
Y138006D01*
X322149D01*
Y138550D01*
X323237D01*
Y139093D01*
X325412D01*
Y138550D01*
D02*
G37*
G36*
X359668Y143443D02*
X360211D01*
Y142356D01*
X360755D01*
Y141812D01*
X361299D01*
Y141268D01*
X361843D01*
Y140181D01*
X362387D01*
Y139637D01*
X362930D01*
Y138550D01*
X363474D01*
Y137462D01*
X364018D01*
Y122781D01*
X364562D01*
Y122237D01*
X365105D01*
Y121694D01*
X365649D01*
Y121150D01*
X366193D01*
Y120606D01*
X366736D01*
Y120062D01*
X367280D01*
Y119519D01*
X367824D01*
Y118975D01*
X368368D01*
Y118431D01*
X368911D01*
Y117887D01*
X369455D01*
Y117344D01*
X369999D01*
Y116800D01*
X371086D01*
Y115712D01*
X371630D01*
Y115169D01*
X372174D01*
Y114625D01*
X372718D01*
Y114081D01*
X373261D01*
Y113537D01*
X373805D01*
Y108644D01*
X374349D01*
Y108100D01*
X374893D01*
Y107556D01*
X375436D01*
Y107013D01*
X375980D01*
Y106469D01*
X376524D01*
Y105925D01*
X377068D01*
Y105381D01*
X377611D01*
Y104838D01*
X378155D01*
Y104294D01*
X378699D01*
Y103750D01*
X379243D01*
Y103206D01*
X379786D01*
Y102662D01*
X380330D01*
Y102119D01*
X380874D01*
Y101575D01*
X381418D01*
Y101031D01*
X381961D01*
Y100487D01*
X382505D01*
Y99944D01*
X383592D01*
Y98856D01*
X384680D01*
Y98313D01*
X385224D01*
Y97769D01*
X385768D01*
Y97225D01*
X386311D01*
Y96681D01*
X386855D01*
Y96138D01*
X387399D01*
Y95594D01*
X387943D01*
Y95050D01*
X388486D01*
Y94506D01*
X389030D01*
Y93963D01*
X389574D01*
Y93419D01*
X390117D01*
Y92875D01*
X390661D01*
Y92331D01*
X391205D01*
Y91788D01*
X391749D01*
Y91244D01*
X392293D01*
Y90700D01*
X392836D01*
Y90156D01*
X393380D01*
Y89613D01*
X393924D01*
Y89069D01*
X394467D01*
Y88525D01*
X395011D01*
Y87981D01*
X395555D01*
Y87438D01*
X396099D01*
Y86894D01*
X396642D01*
Y86350D01*
X397186D01*
Y85807D01*
X397730D01*
Y85263D01*
X398274D01*
Y84719D01*
X398817D01*
Y84175D01*
X400449D01*
Y84719D01*
X402080D01*
Y84175D01*
X403711D01*
Y83631D01*
X404799D01*
Y82544D01*
X405342D01*
Y82000D01*
X405886D01*
Y80369D01*
X406430D01*
Y79282D01*
Y78738D01*
X405886D01*
Y77106D01*
X405342D01*
Y76563D01*
X404799D01*
Y76019D01*
X404255D01*
Y75475D01*
X403167D01*
Y74932D01*
X399361D01*
Y75475D01*
X398274D01*
Y76019D01*
X397730D01*
Y76563D01*
X397186D01*
Y77650D01*
X396642D01*
Y81456D01*
X397186D01*
Y82544D01*
X396099D01*
Y83088D01*
X395555D01*
Y83631D01*
X395011D01*
Y84175D01*
X394467D01*
Y84719D01*
X393924D01*
Y85263D01*
X393380D01*
Y85807D01*
X392836D01*
Y86350D01*
X392293D01*
Y86894D01*
X391749D01*
Y87438D01*
X391205D01*
Y87981D01*
X390661D01*
Y88525D01*
X390117D01*
Y89069D01*
X389574D01*
Y89613D01*
X389030D01*
Y90156D01*
X388486D01*
Y90700D01*
X387943D01*
Y91244D01*
X387399D01*
Y91788D01*
X386855D01*
Y92331D01*
X386311D01*
Y92875D01*
X385768D01*
Y93419D01*
X385224D01*
Y93963D01*
X384680D01*
Y94506D01*
X384136D01*
Y95050D01*
X383592D01*
Y95594D01*
X383049D01*
Y96138D01*
X382505D01*
Y96681D01*
X381961D01*
Y97225D01*
X381418D01*
Y97769D01*
X380874D01*
Y98313D01*
X380330D01*
Y98856D01*
X379786D01*
Y99400D01*
X378699D01*
Y99944D01*
X378155D01*
Y100487D01*
X377611D01*
Y101031D01*
X377068D01*
Y101575D01*
X376524D01*
Y102119D01*
X375980D01*
Y102662D01*
X375436D01*
Y103206D01*
X374893D01*
Y103750D01*
X374349D01*
Y104294D01*
X373805D01*
Y104838D01*
X373261D01*
Y105381D01*
X372718D01*
Y105925D01*
X372174D01*
Y106469D01*
X371630D01*
Y107013D01*
X371086D01*
Y111906D01*
X370543D01*
Y112450D01*
X369999D01*
Y112994D01*
X369455D01*
Y113537D01*
X368911D01*
Y114081D01*
X368368D01*
Y114625D01*
X367824D01*
Y115169D01*
X367280D01*
Y115712D01*
X366736D01*
Y116800D01*
X365649D01*
Y117344D01*
X365105D01*
Y117887D01*
X364562D01*
Y118431D01*
X364018D01*
Y118975D01*
X363474D01*
Y119519D01*
X362930D01*
Y120062D01*
X362387D01*
Y120606D01*
X361843D01*
Y121150D01*
X361299D01*
Y121694D01*
X360755D01*
Y136918D01*
X360211D01*
Y138006D01*
X359668D01*
Y138550D01*
X359124D01*
Y139637D01*
X358580D01*
Y140181D01*
X358036D01*
Y141268D01*
X357493D01*
Y141812D01*
X356949D01*
Y165193D01*
X359668D01*
Y143443D01*
D02*
G37*
G36*
X383049Y81456D02*
X384136D01*
Y80913D01*
X385224D01*
Y79825D01*
X385768D01*
Y79282D01*
X386311D01*
Y75475D01*
X385768D01*
Y74388D01*
X385224D01*
Y73844D01*
X384680D01*
Y73300D01*
X384136D01*
Y72757D01*
X383049D01*
Y72213D01*
X380330D01*
Y72757D01*
X378699D01*
Y73300D01*
X378155D01*
Y73844D01*
X377611D01*
Y74932D01*
X377068D01*
Y76019D01*
X376524D01*
Y78194D01*
X377068D01*
Y79825D01*
X377611D01*
Y80369D01*
X378155D01*
Y80913D01*
X378699D01*
Y81456D01*
X379786D01*
Y82000D01*
X383049D01*
Y81456D01*
D02*
G37*
G36*
X339006Y124412D02*
X340637D01*
Y123869D01*
X341724D01*
Y123325D01*
X342268D01*
Y122237D01*
X342812D01*
Y121150D01*
X343355D01*
Y118975D01*
X343899D01*
Y117887D01*
X344443D01*
Y117344D01*
X344987D01*
Y116800D01*
X345530D01*
Y116256D01*
X346074D01*
Y115712D01*
X358580D01*
Y115169D01*
X359124D01*
Y114625D01*
X359668D01*
Y114081D01*
X360211D01*
Y113537D01*
X360755D01*
Y112994D01*
X361843D01*
Y112450D01*
X362387D01*
Y111906D01*
X362930D01*
Y94506D01*
X362387D01*
Y93963D01*
X361843D01*
Y93419D01*
X361299D01*
Y92875D01*
X360755D01*
Y92331D01*
X360211D01*
Y91788D01*
X359124D01*
Y91244D01*
X358580D01*
Y90700D01*
X358036D01*
Y90156D01*
X357493D01*
Y89613D01*
X356949D01*
Y89069D01*
X356405D01*
Y88525D01*
X355318D01*
Y87981D01*
X354774D01*
Y87438D01*
X354230D01*
Y86894D01*
X353687D01*
Y71125D01*
X353143D01*
Y70582D01*
X352055D01*
Y70038D01*
X351512D01*
Y69494D01*
X350968D01*
Y68950D01*
X350424D01*
Y68407D01*
X349880D01*
Y67863D01*
X349337D01*
Y67319D01*
X348793D01*
Y66775D01*
X348249D01*
Y61882D01*
X347705D01*
Y60794D01*
X347162D01*
Y60251D01*
X346618D01*
Y59707D01*
X345530D01*
Y59163D01*
X341724D01*
Y59707D01*
X340637D01*
Y60251D01*
X340093D01*
Y60794D01*
X339549D01*
Y61882D01*
X339006D01*
Y63513D01*
X338462D01*
Y64057D01*
X339006D01*
Y66232D01*
X339549D01*
Y66775D01*
X340093D01*
Y67863D01*
X341180D01*
Y68407D01*
X342812D01*
Y68950D01*
X344443D01*
Y68407D01*
X346074D01*
Y68950D01*
X346618D01*
Y69494D01*
X347162D01*
Y70038D01*
X347705D01*
Y70582D01*
X348249D01*
Y71125D01*
X348793D01*
Y71669D01*
X349337D01*
Y72213D01*
X350424D01*
Y87981D01*
X350968D01*
Y88525D01*
X351512D01*
Y89069D01*
X352055D01*
Y89613D01*
X352599D01*
Y90156D01*
X353143D01*
Y90700D01*
X354230D01*
Y91244D01*
X354774D01*
Y91788D01*
X355318D01*
Y92331D01*
X355862D01*
Y92875D01*
X356405D01*
Y93419D01*
X356949D01*
Y93963D01*
X358036D01*
Y94506D01*
X358580D01*
Y95050D01*
X359124D01*
Y95594D01*
X359668D01*
Y110819D01*
X358580D01*
Y111362D01*
X358036D01*
Y111906D01*
X357493D01*
Y112450D01*
X345530D01*
Y112994D01*
X344443D01*
Y113537D01*
X343899D01*
Y114625D01*
X342812D01*
Y115169D01*
X342268D01*
Y116256D01*
X341180D01*
Y115712D01*
X340637D01*
Y115169D01*
X336287D01*
Y115712D01*
X335199D01*
Y116256D01*
X334655D01*
Y116800D01*
X334112D01*
Y117887D01*
X333568D01*
Y121694D01*
X334112D01*
Y122781D01*
X334655D01*
Y123325D01*
X335199D01*
Y123869D01*
X335743D01*
Y124412D01*
X337374D01*
Y124956D01*
X339006D01*
Y124412D01*
D02*
G37*
G36*
X368911Y66775D02*
X369999D01*
Y66232D01*
X370543D01*
Y65688D01*
X371086D01*
Y65144D01*
X371630D01*
Y62969D01*
X372174D01*
Y61882D01*
X371630D01*
Y60251D01*
X371086D01*
Y59707D01*
X370543D01*
Y59163D01*
X369999D01*
Y58619D01*
X369455D01*
Y58075D01*
X367824D01*
Y57532D01*
X366193D01*
Y58075D01*
X364562D01*
Y58619D01*
X364018D01*
Y59163D01*
X363474D01*
Y59707D01*
X362930D01*
Y60794D01*
X362387D01*
Y64600D01*
X362930D01*
Y65688D01*
X363474D01*
Y66232D01*
X364018D01*
Y66775D01*
X365105D01*
Y67319D01*
X368911D01*
Y66775D01*
D02*
G37*
%LPC*%
G36*
X163920Y126044D02*
X156851D01*
Y115169D01*
Y114625D01*
Y110275D01*
X164464D01*
Y111362D01*
X163920D01*
Y124956D01*
X164464D01*
Y125500D01*
X163920D01*
Y126044D01*
D02*
G37*
G36*
X398817Y84175D02*
X398274D01*
Y83631D01*
X398817D01*
Y84175D01*
D02*
G37*
G36*
X398274Y83631D02*
X397730D01*
Y83088D01*
X398274D01*
Y83631D01*
D02*
G37*
G36*
X397730Y83088D02*
X397186D01*
Y82544D01*
X397730D01*
Y83088D01*
D02*
G37*
%LPD*%
M02*
