M48
;Layer_Color=9474304
;FILE_FORMAT=4:4
METRIC,LZ
;TYPE=PLATED
T01F00S00C0.8890
T02F00S00C0.9000
T03F00S00C1.0000
T04F00S00C1.3500
T05F00S00C1.4500
T06F00S00C1.6000
T07F00S00C2.5000
%
T01
X00638Y0027495
X006885Y003122
Y004265
X00638Y0038925
X0005725Y0065725
Y0077155
T02
X00108Y0044225
Y0047725
X0010375Y00581
Y00616
X0080325Y0073375
Y0076875
T03
X006243Y0004575
X006497
X006908
X007162
X00923Y0014125
X00959Y0014225
X0095375Y0017725
X0074375
X0057725Y0018625
Y0022625
X0002725
Y0018625
X0003175Y0044
X0002975Y004835
X000275Y00563
X000255Y0061275
X0018575Y005565
Y007665
X0069575
X0074375Y0068725
X0069575Y005565
X0091025Y0072825
X00908Y0076875
X0095375Y0068725
T04
X0066125Y001507
Y001761
Y002015
T05
X0043905Y004295
X0043255Y004995
X0064195
X0064845Y004295
X003932Y00432
X0038895Y0049825
X0017955
X001838Y00432
T06
X0077795Y00065
X0082875
X0089775Y00067
X0094855
T07
X000215Y0005475
X000245Y007605
X0096225Y00754
M30
