G04*
G04 #@! TF.GenerationSoftware,Altium Limited,Altium Designer,24.1.2 (44)*
G04*
G04 Layer_Color=16711833*
%FSLAX44Y44*%
%MOMM*%
G71*
G04*
G04 #@! TF.SameCoordinates,45874381-32F6-40E1-B25F-84CDE6F57C9E*
G04*
G04*
G04 #@! TF.FilePolarity,Positive*
G04*
G01*
G75*
%ADD11C,0.2000*%
%ADD13C,0.1250*%
%ADD16C,0.1000*%
%ADD40C,0.0500*%
D11*
X427050Y402000D02*
Y457000D01*
Y402000D02*
X660450D01*
Y457000D01*
X427050D02*
X660450D01*
X420550Y472000D02*
X653950D01*
X420550D02*
Y527000D01*
X653950D01*
Y472000D02*
Y527000D01*
X167550Y525750D02*
X400950D01*
Y470750D02*
Y525750D01*
X167550Y470750D02*
X400950D01*
X167550D02*
Y525750D01*
X171800Y459500D02*
X405200D01*
Y404500D02*
Y459500D01*
X171800Y404500D02*
X405200D01*
X171800D02*
Y459500D01*
X642300Y120480D02*
Y231720D01*
Y120480D02*
X692600D01*
Y231720D01*
X642300D02*
X692600D01*
D13*
X302250Y202250D02*
Y206250D01*
Y202250D02*
Y210250D01*
Y206250D02*
Y210250D01*
X298250Y206250D02*
X302250D01*
X298250D02*
X306250D01*
D16*
X10750Y14750D02*
Y156250D01*
Y14750D02*
X593750D01*
Y397750D01*
X10750D02*
X593750D01*
X10750Y156750D02*
Y397750D01*
X727641Y160707D02*
Y703707D01*
X848750Y421750D02*
Y441250D01*
X835250Y432250D02*
X862250D01*
X727250Y160750D02*
X968750D01*
X727250D02*
Y703750D01*
X970250D01*
Y160250D02*
Y703750D01*
X969250Y160250D02*
X970250D01*
X968750Y160750D02*
X969250Y160250D01*
X168750Y541000D02*
X169250Y541500D01*
X168750Y540000D02*
Y541000D01*
Y540000D02*
X712250D01*
Y783000D01*
X169250D02*
X712250D01*
X169250Y541500D02*
Y783000D01*
X440750Y648000D02*
Y675000D01*
X430250Y661500D02*
X449750D01*
X169207Y782609D02*
X712207D01*
D40*
X681300Y23550D02*
X725700D01*
X681300D02*
Y67950D01*
X725700D01*
Y23550D02*
Y67950D01*
X698500Y45750D02*
X708500D01*
X703500Y40750D02*
Y50750D01*
X614800Y23550D02*
X659200D01*
X614800D02*
Y67950D01*
X659200D01*
Y23550D02*
Y67950D01*
X632000Y45750D02*
X642000D01*
X637000Y40750D02*
Y50750D01*
M02*
