G04*
G04 #@! TF.GenerationSoftware,Altium Limited,Altium Designer,24.1.2 (44)*
G04*
G04 Layer_Color=65535*
%FSLAX44Y44*%
%MOMM*%
G71*
G04*
G04 #@! TF.SameCoordinates,45874381-32F6-40E1-B25F-84CDE6F57C9E*
G04*
G04*
G04 #@! TF.FilePolarity,Positive*
G04*
G01*
G75*
%ADD10C,0.2500*%
%ADD11C,0.2000*%
%ADD12C,0.1500*%
%ADD13C,0.1250*%
%ADD14C,0.1524*%
%ADD15C,0.1270*%
%ADD16C,0.1000*%
%ADD17C,0.2540*%
D10*
X563500Y7250D02*
G03*
X563500Y7250I-1250J0D01*
G01*
X976534Y699283D02*
G03*
X976312Y699251I-284J1217D01*
G01*
X707783Y533716D02*
G03*
X707751Y533938I1217J284D01*
G01*
X662500Y234450D02*
G03*
X662500Y234450I-1250J0D01*
G01*
D11*
X843250Y751250D02*
G03*
X843250Y751250I-40000J0D01*
G01*
X809250Y700250D02*
G03*
X809250Y700250I-6000J0D01*
G01*
X143750Y598500D02*
G03*
X143750Y598500I-40000J0D01*
G01*
X109750Y547500D02*
G03*
X109750Y547500I-6000J0D01*
G01*
X148000Y459750D02*
G03*
X148000Y459750I-40000J0D01*
G01*
X114000Y510750D02*
G03*
X114000Y510750I-6000J0D01*
G01*
X898750Y133400D02*
G03*
X898750Y133400I-1000J0D01*
G01*
X778950Y131400D02*
G03*
X778950Y131400I-1000J0D01*
G01*
X516750Y404500D02*
Y454500D01*
X591250Y429500D02*
X613750D01*
X473750D02*
X496250D01*
Y403000D02*
Y456000D01*
Y403000D02*
X591250D01*
Y456000D01*
X496250D02*
X591250D01*
X803250Y695250D02*
Y705250D01*
X798250Y700250D02*
X808250D01*
X489750Y473000D02*
X584750D01*
X489750D02*
Y526000D01*
X584750D01*
Y473000D02*
Y526000D01*
Y499500D02*
X607250D01*
X467250D02*
X489750D01*
X564250Y474500D02*
Y524500D01*
X236750Y524750D02*
X331750D01*
Y471750D02*
Y524750D01*
X236750Y471750D02*
X331750D01*
X236750D02*
Y524750D01*
X214250Y498250D02*
X236750D01*
X331750D02*
X354250D01*
X257250Y473250D02*
Y523250D01*
X103750Y542500D02*
Y552500D01*
X98750Y547500D02*
X108750D01*
X241000Y458500D02*
X336000D01*
Y405500D02*
Y458500D01*
X241000Y405500D02*
X336000D01*
X241000D02*
Y458500D01*
X218500Y432000D02*
X241000D01*
X336000D02*
X358500D01*
X261500Y407000D02*
Y457000D01*
X108000Y505750D02*
Y515750D01*
X103000Y510750D02*
X113000D01*
X643300Y218780D02*
X691600Y229450D01*
Y123250D02*
Y228950D01*
X643300Y133420D02*
X691600Y122750D01*
X643300Y133420D02*
Y218780D01*
D12*
X721378Y54191D02*
G03*
X687794Y56887I-17578J-8442D01*
G01*
Y34613D02*
G03*
X721378Y37308I16006J11137D01*
G01*
X654878Y54191D02*
G03*
X621293Y56887I-17578J-8442D01*
G01*
Y34613D02*
G03*
X654878Y37308I16006J11137D01*
G01*
X687794Y55457D02*
Y56887D01*
Y34613D02*
Y36044D01*
X621293Y55457D02*
Y56887D01*
Y34613D02*
Y36044D01*
D13*
X41250Y15250D02*
X563250D01*
X41250D02*
Y17250D01*
X563250Y15250D02*
Y17250D01*
X41250Y395411D02*
Y397250D01*
X563250Y396412D02*
Y397250D01*
X41250D02*
X563250D01*
D14*
X42899Y681634D02*
X71601D01*
X42899D02*
Y747166D01*
X71601D01*
Y681634D02*
Y747166D01*
X623649Y364866D02*
X652351D01*
Y299334D02*
Y364866D01*
X623649Y299334D02*
X652351D01*
X623649D02*
Y364866D01*
X674149Y402116D02*
X702851D01*
Y336584D02*
Y402116D01*
X674149Y336584D02*
X702851D01*
X674149D02*
Y402116D01*
D15*
X872350Y10400D02*
X973950D01*
X872350Y123400D02*
X973950D01*
Y10400D02*
Y123400D01*
X872350Y10400D02*
Y123400D01*
X752550Y8400D02*
X854150D01*
X752550Y121400D02*
X854150D01*
Y8400D02*
Y121400D01*
X752550Y8400D02*
Y121400D01*
D16*
X729572Y42394D02*
Y49250D01*
X733000Y45822D02*
X726144D01*
X667072Y40894D02*
Y47750D01*
X670500Y44322D02*
X663644D01*
D17*
X663843Y467868D02*
Y452632D01*
X671461D01*
X674000Y455172D01*
Y465328D01*
X671461Y467868D01*
X663843D01*
X679078Y452632D02*
X684157D01*
X681618D01*
Y467868D01*
X679078Y465328D01*
X135554Y783367D02*
Y770672D01*
X138093Y768132D01*
X143172D01*
X145711Y770672D01*
Y783367D01*
X160946Y768132D02*
X150789D01*
X160946Y778289D01*
Y780828D01*
X158407Y783367D01*
X153328D01*
X150789Y780828D01*
X714843Y724368D02*
Y711672D01*
X717383Y709132D01*
X722461D01*
X725000Y711672D01*
Y724368D01*
X730078Y709132D02*
X735157D01*
X732618D01*
Y724368D01*
X730078Y721828D01*
X722868Y320304D02*
X707632D01*
Y327922D01*
X710172Y330461D01*
X715250D01*
X717789Y327922D01*
Y320304D01*
Y325382D02*
X722868Y330461D01*
X710172Y335539D02*
X707632Y338078D01*
Y343157D01*
X710172Y345696D01*
X712711D01*
X715250Y343157D01*
Y340617D01*
Y343157D01*
X717789Y345696D01*
X720328D01*
X722868Y343157D01*
Y338078D01*
X720328Y335539D01*
X18882Y716696D02*
X34118D01*
Y709078D01*
X31578Y706539D01*
X26500D01*
X23961Y709078D01*
Y716696D01*
Y711618D02*
X18882Y706539D01*
Y691304D02*
Y701461D01*
X29039Y691304D01*
X31578D01*
X34118Y693843D01*
Y698922D01*
X31578Y701461D01*
X603382Y389407D02*
X618618D01*
Y381789D01*
X616078Y379250D01*
X611000D01*
X608461Y381789D01*
Y389407D01*
Y384328D02*
X603382Y379250D01*
Y374172D02*
Y369093D01*
Y371632D01*
X618618D01*
X616078Y374172D01*
X654023Y247145D02*
Y257302D01*
X651484Y259841D01*
X646405D01*
X643866Y257302D01*
Y247145D01*
X646405Y244606D01*
X651484D01*
X648944Y249684D02*
X654023Y244606D01*
X651484D02*
X654023Y247145D01*
X659101Y244606D02*
X664179D01*
X661640D01*
Y259841D01*
X659101Y257302D01*
X20294Y421131D02*
X15215D01*
X12676Y418592D01*
Y408435D01*
X15215Y405896D01*
X20294D01*
X22833Y408435D01*
Y418592D01*
X20294Y421131D01*
X27911Y405896D02*
X32989D01*
X30450D01*
Y421131D01*
X27911Y418592D01*
X873961Y148868D02*
X868883D01*
X871422D01*
Y136172D01*
X868883Y133632D01*
X866343D01*
X863804Y136172D01*
X889196Y133632D02*
X879039D01*
X889196Y143789D01*
Y146328D01*
X886657Y148868D01*
X881578D01*
X879039Y146328D01*
X752500Y146617D02*
X747422D01*
X749961D01*
Y133922D01*
X747422Y131382D01*
X744883D01*
X742343Y133922D01*
X757578Y131382D02*
X762657D01*
X760118D01*
Y146617D01*
X757578Y144078D01*
X623104Y95868D02*
Y80632D01*
X630722D01*
X633261Y83172D01*
Y93328D01*
X630722Y95868D01*
X623104D01*
X648496D02*
X643418Y93328D01*
X638339Y88250D01*
Y83172D01*
X640878Y80632D01*
X645957D01*
X648496Y83172D01*
Y85711D01*
X645957Y88250D01*
X638339D01*
X685804Y100118D02*
Y84882D01*
X693422D01*
X695961Y87422D01*
Y97578D01*
X693422Y100118D01*
X685804D01*
X711196D02*
X701039D01*
Y92500D01*
X706117Y95039D01*
X708657D01*
X711196Y92500D01*
Y87422D01*
X708657Y84882D01*
X703578D01*
X701039Y87422D01*
X155804Y465617D02*
Y450382D01*
X163422D01*
X165961Y452922D01*
Y463078D01*
X163422Y465617D01*
X155804D01*
X178657Y450382D02*
Y465617D01*
X171039Y458000D01*
X181196D01*
X665554Y518618D02*
Y503382D01*
X673172D01*
X675711Y505922D01*
Y516078D01*
X673172Y518618D01*
X665554D01*
X680789Y516078D02*
X683328Y518618D01*
X688407D01*
X690946Y516078D01*
Y513539D01*
X688407Y511000D01*
X685867D01*
X688407D01*
X690946Y508461D01*
Y505922D01*
X688407Y503382D01*
X683328D01*
X680789Y505922D01*
X137054Y541618D02*
Y526382D01*
X144672D01*
X147211Y528922D01*
Y539078D01*
X144672Y541618D01*
X137054D01*
X162446Y526382D02*
X152289D01*
X162446Y536539D01*
Y539078D01*
X159907Y541618D01*
X154828D01*
X152289Y539078D01*
X109828Y659789D02*
X112367Y662328D01*
Y667407D01*
X109828Y669946D01*
X99672D01*
X97133Y667407D01*
Y662328D01*
X99672Y659789D01*
X109828Y654711D02*
X112367Y652172D01*
Y647093D01*
X109828Y644554D01*
X107289D01*
X104750Y647093D01*
Y649632D01*
Y647093D01*
X102211Y644554D01*
X99672D01*
X97133Y647093D01*
Y652172D01*
X99672Y654711D01*
X85578Y523289D02*
X88118Y525828D01*
Y530907D01*
X85578Y533446D01*
X75422D01*
X72882Y530907D01*
Y525828D01*
X75422Y523289D01*
X72882Y508054D02*
Y518211D01*
X83039Y508054D01*
X85578D01*
X88118Y510593D01*
Y515672D01*
X85578Y518211D01*
X743172Y748500D02*
X740632Y745961D01*
Y740882D01*
X743172Y738343D01*
X753328D01*
X755867Y740882D01*
Y745961D01*
X753328Y748500D01*
X755867Y753578D02*
Y758657D01*
Y756118D01*
X740632D01*
X743172Y753578D01*
M02*
