G04*
G04 #@! TF.GenerationSoftware,Altium Limited,Altium Designer,24.1.2 (44)*
G04*
G04 Layer_Physical_Order=1*
G04 Layer_Color=255*
%FSLAX44Y44*%
%MOMM*%
G71*
G04*
G04 #@! TF.SameCoordinates,45874381-32F6-40E1-B25F-84CDE6F57C9E*
G04*
G04*
G04 #@! TF.FilePolarity,Positive*
G04*
G01*
G75*
%ADD21C,2.2000*%
%ADD22R,2.2000X2.2000*%
%ADD25C,1.3970*%
%ADD26R,1.3970X1.3970*%
%ADD29C,2.0500*%
%ADD30R,2.0500X2.0500*%
%ADD31C,0.3810*%
%ADD32C,1.2700*%
%ADD33C,2.5000*%
%ADD34R,3.0000X3.0000*%
%ADD35R,3.0000X3.0000*%
%ADD36C,1.4000*%
%ADD37C,1.5000*%
%ADD38C,2.4000*%
%ADD39R,2.4000X2.4000*%
D21*
X648450Y429500D02*
D03*
X432550Y499500D02*
D03*
X388950Y498250D02*
D03*
X393200Y432000D02*
D03*
D22*
X439050Y429500D02*
D03*
X641950Y499500D02*
D03*
X179550Y498250D02*
D03*
X183800Y432000D02*
D03*
D25*
X57250Y771550D02*
D03*
X638000Y274950D02*
D03*
X688500Y312200D02*
D03*
D26*
X57250Y657250D02*
D03*
X638000Y389250D02*
D03*
X688500Y426500D02*
D03*
D29*
X661250Y150700D02*
D03*
Y176100D02*
D03*
D30*
Y201500D02*
D03*
D31*
X650152Y414149D02*
G03*
X663801Y427801I-1702J15351D01*
G01*
X717153Y682653D02*
X803250Y768750D01*
X908000D02*
X908000Y768750D01*
X803250Y768750D02*
X908000D01*
X717153Y541617D02*
Y682653D01*
X633005Y457469D02*
X717153Y541617D01*
X668594Y415094D02*
X677094D01*
X666250Y412750D02*
X668594Y415094D01*
X666250Y404250D02*
Y412750D01*
X698500Y441000D02*
X702000Y437500D01*
X695950Y236970D02*
X702000Y243020D01*
X677000Y441000D02*
X698500D01*
X702000Y243020D02*
Y437500D01*
X663801Y427801D02*
X677000Y441000D01*
X642053Y414055D02*
X649309D01*
X650152Y414149D01*
X695950Y145449D02*
Y236970D01*
X690800Y140299D02*
X695950Y145449D01*
X666250Y302250D02*
X683250Y285250D01*
Y196714D02*
Y285250D01*
X649700Y118368D02*
X689600Y158268D01*
Y311100D01*
X675945Y189409D02*
X683250Y196714D01*
X690800Y45750D02*
Y140299D01*
X688500Y312200D02*
X689600Y311100D01*
X675945Y189409D02*
Y282305D01*
X658630Y299620D02*
Y396630D01*
Y299620D02*
X675945Y282305D01*
X633005Y423102D02*
X642053Y414055D01*
X633005Y423102D02*
Y457469D01*
X684984Y422984D02*
Y429040D01*
Y422984D02*
X688500Y426500D01*
X666250Y302250D02*
Y404250D01*
X677094Y415094D02*
X684984Y422984D01*
X666250Y404250D02*
X677094Y415094D01*
X658630Y396630D02*
X666250Y404250D01*
X673341Y186805D02*
X675945Y189409D01*
X662636Y176100D02*
X673341Y186805D01*
X649159D02*
X673341D01*
X575013Y354102D02*
X649430Y279685D01*
Y235984D02*
Y279685D01*
X646555Y233109D02*
X649430Y235984D01*
X646555Y189409D02*
Y233109D01*
Y189409D02*
X649159Y186805D01*
X393200Y432000D02*
X471098Y354102D01*
X575013D01*
X682655Y543405D02*
X695750Y556500D01*
X641950Y499500D02*
X682655Y540205D01*
Y543405D01*
X54036Y784500D02*
X167750D01*
X57250Y771550D02*
X115650D01*
X388950Y498250D01*
X45820Y766815D02*
Y776284D01*
X54036Y784500D01*
X131250Y661250D02*
Y681385D01*
X45820Y766815D02*
X131250Y681385D01*
X661250Y201500D02*
Y285382D01*
X638000Y308633D02*
Y389250D01*
Y308633D02*
X661250Y285382D01*
X582700Y444550D02*
X638000Y389250D01*
X167750Y784500D02*
X185750Y766500D01*
X131250Y661250D02*
X142500Y650000D01*
X179550Y436250D02*
Y498250D01*
Y436250D02*
X183800Y432000D01*
X661250Y176100D02*
X662636D01*
X388950Y498250D02*
X411958D01*
X465658Y444550D01*
X582700D01*
X5955Y495991D02*
X16250Y506286D01*
Y551750D01*
X19519Y464055D02*
X110991D01*
X15111Y198389D02*
Y204573D01*
X5955Y211259D02*
X10409Y206805D01*
X12305Y423159D02*
Y456841D01*
X12879Y206805D02*
X15111Y204573D01*
Y198389D02*
X27250Y186250D01*
X12305Y423159D02*
X14909Y420555D01*
X16250Y551750D02*
X25000Y560500D01*
X5955Y211259D02*
Y495991D01*
X10409Y206805D02*
X12879D01*
X12305Y456841D02*
X19519Y464055D01*
X14909Y420555D02*
X48591D01*
X25000Y560500D02*
Y565500D01*
X58174Y430138D02*
X62018D01*
X48591Y420555D02*
X58174Y430138D01*
X64250Y424750D02*
Y427906D01*
X119445Y472509D02*
Y581491D01*
X62018Y430138D02*
X64250Y427906D01*
X108238Y592698D02*
X119445Y581491D01*
X45552Y592698D02*
X108238D01*
X25500Y612750D02*
X45552Y592698D01*
X110991Y464055D02*
X119445Y472509D01*
X45500Y581000D02*
X103750D01*
X27500Y563000D02*
X45500Y581000D01*
X29750Y483500D02*
X36000Y477250D01*
X108000D01*
X34000Y442250D02*
X108000D01*
X27250Y226250D02*
Y387750D01*
X64250Y424750D01*
X28750Y616000D02*
X103750D01*
X25000Y565500D02*
X27500Y563000D01*
X596695Y21287D02*
X605732Y12250D01*
X593536Y206250D02*
X596695Y203091D01*
Y21287D02*
Y203091D01*
X560964Y206250D02*
X593536D01*
X557805Y209409D02*
Y243091D01*
Y209409D02*
X560964Y206250D01*
X557805Y243091D02*
X589664Y274950D01*
X638000D01*
X590345Y213155D02*
X595611D01*
X603045Y205721D01*
X605732Y12250D02*
X712750D01*
X603045Y200455D02*
X624300Y179200D01*
X603045Y200455D02*
Y205721D01*
X577250Y226250D02*
X590345Y213155D01*
X716200Y15700D02*
Y45750D01*
X712750Y12250D02*
X716200Y15700D01*
X649700Y45750D02*
Y118368D01*
X624300Y45750D02*
Y179200D01*
X157768Y650000D02*
X160000Y647768D01*
Y442750D02*
Y647768D01*
X135129Y440000D02*
X157250D01*
X108000Y442250D02*
X132879D01*
X135129Y440000D01*
X157250D02*
X160000Y442750D01*
X142500Y650000D02*
X157768D01*
X31750Y440000D02*
X34000Y442250D01*
X25500Y612750D02*
X28750Y616000D01*
D32*
X648450Y429500D02*
X680622Y461672D01*
X774328D02*
X953750Y282250D01*
X680622Y461672D02*
X774328D01*
X953750Y177250D02*
Y282250D01*
D33*
X21500Y54750D02*
D03*
X24500Y760500D02*
D03*
X962250Y754000D02*
D03*
D34*
X577250Y186250D02*
D03*
Y226250D02*
D03*
X27250D02*
D03*
Y186250D02*
D03*
X908000Y768750D02*
D03*
X695750Y556500D02*
D03*
Y766500D02*
D03*
X185750Y556500D02*
D03*
Y766500D02*
D03*
X923000Y141250D02*
D03*
X959000Y142250D02*
D03*
X910250Y728250D02*
D03*
X27500Y563000D02*
D03*
X25500Y612750D02*
D03*
X31750Y440000D02*
D03*
X29750Y483500D02*
D03*
D35*
X743750Y177250D02*
D03*
X953750D02*
D03*
X743750Y687250D02*
D03*
X953750D02*
D03*
D36*
X803250Y733750D02*
D03*
Y768750D02*
D03*
X103750Y581000D02*
D03*
Y616000D02*
D03*
X108000Y477250D02*
D03*
Y442250D02*
D03*
D37*
X716200Y45750D02*
D03*
X690800D02*
D03*
X649700D02*
D03*
X624300D02*
D03*
D38*
X948550Y67000D02*
D03*
X828750Y65000D02*
D03*
D39*
X897750Y67000D02*
D03*
X777950Y65000D02*
D03*
M02*
