G04*
G04 #@! TF.GenerationSoftware,Altium Limited,Altium Designer,24.1.2 (44)*
G04*
G04 Layer_Color=16711935*
%FSLAX44Y44*%
%MOMM*%
G71*
G04*
G04 #@! TF.SameCoordinates,45874381-32F6-40E1-B25F-84CDE6F57C9E*
G04*
G04*
G04 #@! TF.FilePolarity,Positive*
G04*
G01*
G75*
%ADD11C,0.2000*%
%ADD15C,0.1270*%
%ADD16C,0.1000*%
%ADD41C,0.0254*%
D11*
X898750Y133400D02*
G03*
X898750Y133400I-1000J0D01*
G01*
X778950Y131400D02*
G03*
X778950Y131400I-1000J0D01*
G01*
D15*
X872350Y10400D02*
X973950D01*
Y123400D01*
X872350D02*
X973950D01*
X872350Y10400D02*
Y123400D01*
X752550Y8400D02*
X854150D01*
Y121400D01*
X752550D02*
X854150D01*
X752550Y8400D02*
Y121400D01*
D16*
X843250Y751250D02*
G03*
X843250Y751250I-40000J0D01*
G01*
X143750Y598500D02*
G03*
X143750Y598500I-40000J0D01*
G01*
X148000Y459750D02*
G03*
X148000Y459750I-40000J0D01*
G01*
D41*
X44169Y682904D02*
X70331D01*
X44169D02*
Y745896D01*
X70331D01*
Y682904D02*
Y745896D01*
X57250D02*
Y771550D01*
Y657250D02*
Y682904D01*
X624919Y363596D02*
X651081D01*
Y300604D02*
Y363596D01*
X624919Y300604D02*
X651081D01*
X624919D02*
Y363596D01*
X638000Y274950D02*
Y300604D01*
Y363596D02*
Y389250D01*
X675419Y400846D02*
X701581D01*
Y337854D02*
Y400846D01*
X675419Y337854D02*
X701581D01*
X675419D02*
Y400846D01*
X688500Y312200D02*
Y337854D01*
Y400846D02*
Y426500D01*
M02*
